<?xml version="1.0" standalone="no"?>
<!DOCTYPE svg PUBLIC "-//W3C//DTD SVG 20010904//EN"
 "http://www.w3.org/TR/2001/REC-SVG-20010904/DTD/svg10.dtd">
<svg version="1.0" xmlns="http://www.w3.org/2000/svg"
 width="840.000000pt" height="210.000000pt" viewBox="0 0 840.000000 210.000000"
 preserveAspectRatio="xMidYMid meet">

<g transform="translate(0.000000,210.000000) scale(0.100000,-0.100000)"
fill="#1877F2" stroke="none">
<path d="M3713 2051 c-84 -22 -144 -85 -168 -176 -12 -49 -15 -140 -15 -548
l0 -488 25 -25 c19 -19 31 -23 48 -18 47 14 47 16 47 229 0 112 3 210 6 219 9
24 269 24 278 0 3 -9 6 -107 6 -218 0 -144 3 -205 12 -214 21 -21 75 -15 92
10 23 33 24 954 1 1043 -32 123 -107 185 -232 191 -38 2 -82 -1 -100 -5z m148
-127 c20 -10 38 -32 52 -62 18 -41 21 -72 25 -244 3 -108 2 -208 -2 -223 l-7
-26 -137 3 -137 3 -3 174 c-4 265 13 344 79 378 33 17 94 16 130 -3z"/>
<path d="M830 2010 c-75 -27 -110 -44 -124 -64 -21 -27 -21 -28 9 -98 5 -14 2
-18 -12 -18 -21 0 -177 -107 -205 -141 -15 -18 -19 -18 -24 -6 -8 21 -56 39
-90 35 -23 -2 -41 -20 -87 -83 -32 -44 -62 -89 -66 -100 -13 -30 8 -75 44 -97
l33 -19 -36 -109 -36 -110 -34 0 c-24 0 -42 -9 -63 -29 -28 -29 -29 -32 -29
-136 0 -58 5 -115 11 -127 13 -24 69 -49 95 -42 17 4 24 -9 53 -98 19 -57 36
-109 38 -115 3 -7 -3 -16 -13 -19 -37 -13 -64 -47 -64 -79 0 -39 107 -191 145
-205 28 -11 68 1 98 28 17 15 20 15 35 -5 25 -31 174 -133 196 -133 15 0 17
-5 11 -22 -18 -58 -17 -95 4 -115 21 -20 182 -73 221 -73 27 0 70 43 70 71 0
17 4 19 18 13 9 -5 72 -10 140 -12 93 -2 130 0 152 12 29 14 30 14 36 -12 9
-39 43 -72 73 -72 14 0 68 14 119 31 122 41 137 62 107 156 -6 19 -3 23 12 23
21 0 177 108 198 137 13 17 15 17 38 -5 26 -24 72 -32 99 -16 27 15 138 178
138 202 0 24 -43 75 -70 84 -12 4 -9 23 20 115 l35 111 32 -1 c19 -1 45 8 60
20 28 20 28 22 31 145 2 121 2 125 -22 147 -17 16 -37 24 -63 24 l-38 0 -33
101 c-18 56 -35 106 -38 112 -3 7 6 14 20 18 36 9 69 60 61 94 -3 15 -34 63
-68 107 -57 73 -66 80 -101 83 -28 2 -48 -3 -67 -17 -15 -12 -30 -17 -33 -12
-12 18 -177 131 -201 137 -29 7 -29 10 -10 44 38 66 15 92 -119 140 -104 37
-109 37 -136 22 -29 -17 -50 -50 -50 -79 0 -13 -2 -14 -17 -2 -18 16 -234 20
-288 6 -29 -7 -32 -5 -43 27 -7 19 -22 38 -32 41 -11 4 -20 11 -20 16 0 12 2
12 -120 -31z m124 -67 c3 -21 6 -74 6 -119 l0 -81 -39 -11 c-21 -7 -43 -12
-48 -12 -9 0 -83 111 -113 169 -16 32 -2 44 80 69 97 30 106 29 114 -15z m575
12 c57 -18 81 -31 81 -42 0 -9 -25 -56 -56 -105 -48 -76 -60 -89 -78 -84 -12
4 -34 9 -50 13 l-29 6 7 111 c4 60 10 114 12 118 8 13 28 10 113 -17z m-269
-54 c0 -5 -9 -30 -20 -55 -18 -44 -21 -46 -60 -46 -39 0 -42 2 -60 46 -11 25
-20 50 -20 55 0 5 36 9 80 9 44 0 80 -4 80 -9z m-197 -143 c-2 -5 -13 -8 -24
-8 -16 0 -19 7 -18 53 l0 52 23 -45 c12 -25 21 -48 19 -52z m277 37 c0 -37 -3
-45 -18 -45 -10 0 -21 2 -24 6 -5 4 32 84 40 84 1 0 2 -20 2 -45z m443 -109
c15 -11 27 -23 27 -27 0 -8 -84 -59 -97 -59 -5 0 -27 13 -50 30 l-41 30 10 47
c16 79 13 78 71 37 28 -21 64 -47 80 -58z m-1059 47 c4 -21 9 -46 12 -55 4
-12 -9 -28 -42 -51 l-47 -35 -44 27 c-23 14 -43 31 -43 38 0 13 128 111 146
112 7 1 15 -16 18 -36z m96 -59 c0 -8 -6 -14 -14 -14 -8 0 -15 14 -18 36 l-4
37 18 -23 c10 -12 18 -28 18 -36z m746 -12 c-4 -3 -11 -1 -17 5 -8 8 -7 18 3
34 l13 24 3 -28 c2 -16 1 -31 -2 -35z m-211 23 c100 -26 196 -79 274 -151 154
-143 220 -294 220 -504 1 -104 -9 -158 -41 -238 l-21 -54 -13 39 c-16 47 -44
71 -92 78 -20 3 -71 23 -113 44 l-76 39 -36 -63 c-21 -35 -37 -66 -37 -69 0
-2 28 -21 63 -42 34 -21 81 -58 104 -82 41 -44 43 -45 93 -39 49 6 50 6 39
-16 -20 -36 -110 -120 -177 -165 -138 -91 -353 -126 -518 -84 -107 27 -161 53
-243 115 -65 50 -151 139 -151 157 0 4 13 3 28 -2 47 -18 97 -2 132 42 18 22
61 56 96 76 62 34 64 37 51 58 -7 11 -26 42 -41 68 l-27 47 -60 -36 c-33 -20
-81 -40 -106 -44 -74 -14 -93 -31 -118 -104 -6 -17 -10 -13 -27 25 -81 185
-55 444 60 621 133 203 349 315 587 304 50 -2 117 -11 150 -20z m-876 -96 c39
-45 71 -86 71 -92 0 -6 -12 -26 -27 -46 -14 -20 -27 -37 -28 -39 -4 -5 -191
70 -204 83 -12 12 -5 26 44 94 32 45 62 81 66 81 4 0 40 -37 78 -81z m1529 29
c68 -93 76 -108 64 -120 -13 -13 -177 -78 -196 -78 -22 0 -66 71 -56 89 15 29
131 161 140 161 5 0 27 -24 48 -52z m-246 -87 c-14 -23 -21 -28 -30 -19 -18
18 -14 38 7 38 11 0 23 5 26 11 4 6 9 8 12 6 2 -3 -4 -19 -15 -36z m-1131 19
c13 0 11 -24 -3 -38 -8 -8 -14 -5 -25 15 -17 33 -16 36 3 29 9 -3 20 -6 25 -6z
m-217 -199 l39 -40 -19 -53 -19 -53 -55 -6 c-30 -3 -56 -5 -58 -3 -3 2 47 173
55 187 8 13 19 7 57 -32z m1620 -45 c14 -46 26 -89 26 -95 0 -14 -60 -14 -94
-1 -18 7 -29 22 -40 57 l-15 48 41 38 c22 20 44 37 48 37 4 0 19 -38 34 -84z
m-1523 31 c-8 -8 -11 -7 -11 4 0 20 13 34 18 19 3 -7 -1 -17 -7 -23z m1353 8
c-4 -8 -7 -15 -9 -15 -2 0 -5 7 -9 15 -3 9 0 15 9 15 9 0 12 -6 9 -15z m-1404
-196 c0 -18 -2 -20 -15 -9 -13 11 -13 15 -3 21 18 12 18 12 18 -12z m1461 8
c-1 -12 -15 -9 -19 4 -3 6 1 10 8 8 6 -3 11 -8 11 -12z m-1615 -43 l105 -27
-3 -55 -3 -55 -85 -23 c-47 -13 -97 -23 -112 -24 l-28 0 0 105 c0 65 4 105 10
105 6 0 58 -12 116 -26z m1882 -73 c1 -52 -2 -99 -7 -104 -6 -6 -43 -2 -103
13 -128 31 -128 31 -128 89 l0 48 93 26 c50 14 103 25 117 24 25 -2 25 -4 28
-96z m-1728 -132 c0 -18 -2 -19 -15 -9 -15 12 -12 30 6 30 5 0 9 -10 9 -21z
m1470 12 c0 -12 -20 -25 -27 -18 -7 7 6 27 18 27 5 0 9 -4 9 -9z m-1548 -57
c33 -6 39 -11 52 -52 9 -25 16 -51 16 -57 0 -6 -20 -27 -44 -48 l-44 -37 -31
93 c-17 50 -31 95 -31 100 0 9 32 9 82 1z m1678 -6 c0 -13 -50 -169 -56 -177
-2 -2 -21 11 -44 29 -43 34 -47 51 -26 110 10 26 20 37 42 41 50 11 84 10 84
-3z m-1200 -17 c14 -27 14 -27 -19 -41 -50 -20 -72 13 -28 43 29 21 34 21 47
-2z m691 4 c25 -13 28 -19 19 -35 -13 -24 -13 -24 -51 -5 -25 13 -28 19 -19
35 13 24 13 24 51 5z m-813 -63 c18 -23 15 -56 -8 -77 -43 -39 -108 17 -80 70
20 37 61 40 88 7z m970 5 c6 -5 12 -22 12 -38 0 -38 -39 -66 -69 -49 -30 16
-44 46 -31 70 20 37 53 44 88 17z m-1188 -73 c0 -8 -4 -14 -10 -14 -5 0 -10 9
-10 21 0 11 5 17 10 14 6 -3 10 -13 10 -21z m1350 5 c0 -5 -7 -9 -15 -9 -15 0
-20 12 -9 23 8 8 24 -1 24 -14z m-1342 -103 c13 -19 22 -41 20 -49 -5 -25
-127 -167 -142 -167 -19 0 -126 147 -120 164 6 14 167 84 199 85 12 1 29 -13
43 -33z m1451 0 c47 -18 89 -40 95 -48 7 -11 -4 -34 -45 -91 -30 -42 -59 -77
-66 -77 -18 0 -154 170 -146 183 24 42 47 67 61 67 9 -1 55 -16 101 -34z
m-1345 -65 c17 -19 17 -20 -13 -35 -16 -9 -32 -16 -35 -16 -4 0 25 69 30 70 0
0 9 -9 18 -19z m1131 -11 c17 -33 17 -34 -20 -20 -22 9 -24 12 -13 30 7 11 14
20 15 20 1 0 9 -13 18 -30z m-1066 -101 c32 -24 41 -37 37 -53 -2 -12 -8 -38
-11 -58 -4 -21 -9 -38 -11 -38 -8 0 -164 114 -164 120 0 6 89 59 101 60 3 0
24 -14 48 -31z m1067 5 c25 -15 44 -30 42 -35 -6 -17 -152 -119 -160 -111 -4
4 -10 32 -13 62 -6 55 -6 55 32 82 21 15 42 27 46 28 5 0 29 -12 53 -26z
m-936 -54 c0 -4 -9 -15 -20 -25 -21 -19 -24 -15 -14 22 5 20 34 23 34 3z m744
-12 c3 -17 4 -33 2 -35 -7 -7 -37 48 -31 57 11 18 22 10 29 -22z m-612 -67 c7
-32 -7 -210 -18 -221 -12 -12 -131 20 -171 46 -28 17 -25 26 43 130 l52 82 45
-11 c28 -6 47 -16 49 -26z m596 -55 c28 -46 52 -90 52 -98 0 -23 -170 -82
-186 -65 -7 6 -15 59 -19 118 l-7 107 43 14 c24 8 49 13 54 11 6 -2 34 -41 63
-87z m-498 47 c-1 -10 -9 -34 -20 -53 l-19 -35 -1 46 c0 25 3 49 7 52 13 13
33 7 33 -10z m280 -30 l-1 -48 -19 35 c-25 45 -25 60 0 60 17 0 20 -7 20 -47z
m-100 -43 c34 -66 31 -70 -60 -70 -44 0 -80 2 -80 5 0 11 31 79 41 92 6 7 27
13 45 13 29 0 36 -5 54 -40z"/>
<path d="M1126 1680 c-54 -34 -71 -98 -41 -150 9 -16 14 -55 15 -107 l0 -83
80 0 80 0 0 83 c0 58 5 89 15 103 19 26 19 94 -1 123 -18 25 -71 51 -101 50
-10 0 -31 -9 -47 -19z m92 -52 c18 -18 14 -63 -8 -83 -44 -40 -98 13 -71 71
12 27 57 34 79 12z m-18 -198 c0 -33 -3 -40 -20 -40 -17 0 -20 7 -20 40 0 33
3 40 20 40 17 0 20 -7 20 -40z"/>
<path d="M969 1576 c-19 -10 -24 -19 -23 -50 2 -49 32 -81 68 -72 36 9 50 39
36 80 -13 41 -48 59 -81 42z m44 -56 c7 -29 -11 -36 -22 -8 -9 24 -5 42 8 33
5 -2 11 -14 14 -25z"/>
<path d="M1326 1558 c-27 -43 -28 -66 -7 -87 26 -26 53 -27 74 -3 23 26 32 78
17 97 -19 23 -67 19 -84 -7z m49 -35 c-8 -32 -13 -39 -21 -30 -10 9 5 57 17
57 7 0 9 -10 4 -27z"/>
<path d="M810 1450 c-27 -27 -25 -43 11 -79 35 -35 46 -37 77 -15 30 20 28 52
-5 86 -32 33 -56 35 -83 8z m64 -43 c6 -9 7 -19 3 -23 -9 -9 -37 15 -37 33 0
18 20 12 34 -10z"/>
<path d="M1466 1439 c-32 -37 -33 -63 -4 -83 32 -23 46 -20 79 15 33 36 37 59
11 82 -28 25 -57 20 -86 -14z m64 -16 c0 -10 -32 -43 -42 -43 -12 0 -10 24 4
38 13 13 38 16 38 5z"/>
<path d="M1032 1380 c-36 -15 -112 -70 -143 -104 -46 -51 -78 -118 -90 -192
-12 -65 -6 -144 9 -144 22 1 30 23 34 95 6 135 77 246 191 298 30 14 47 28 47
39 0 20 -13 22 -48 8z"/>
<path d="M1290 1372 c0 -14 14 -27 45 -42 115 -56 185 -168 188 -303 2 -65 12
-86 41 -87 4 0 7 42 4 94 -3 80 -8 102 -36 159 -44 89 -130 164 -219 191 -19
6 -23 3 -23 -12z"/>
<path d="M709 1326 c-35 -17 -37 -58 -3 -85 66 -52 144 10 82 66 -32 28 -51
33 -79 19z m47 -40 c10 -8 16 -17 12 -21 -11 -11 -48 5 -48 21 0 18 11 18 36
0z"/>
<path d="M1595 1323 c-48 -26 -59 -58 -29 -87 23 -23 58 -19 93 10 36 30 39
46 11 74 -24 24 -35 24 -75 3z m45 -37 c0 -16 -27 -29 -42 -20 -7 5 -4 12 7
21 24 17 35 17 35 -1z"/>
<path d="M1062 1264 c-115 -57 -169 -191 -127 -315 21 -62 63 -109 126 -144
45 -24 65 -29 119 -28 36 0 81 7 101 16 54 22 119 86 142 136 24 55 26 151 3
203 -60 138 -229 199 -364 132z m203 -43 c43 -19 90 -68 107 -110 6 -14 10
-49 10 -77 -1 -150 -152 -247 -287 -185 -63 28 -115 109 -115 179 0 63 20 112
60 152 60 60 148 76 225 41z"/>
<path d="M1105 1170 c-79 -41 -104 -118 -67 -203 69 -155 304 -103 304 68 0
86 -57 146 -146 152 -38 3 -61 -1 -91 -17z m132 -50 c85 -52 46 -190 -55 -190
-44 0 -68 14 -87 50 -26 51 -20 94 20 129 41 36 76 39 122 11z"/>
<path d="M640 1152 c-35 -29 -21 -68 30 -83 33 -10 43 -9 65 5 38 25 34 63
-10 82 -45 18 -58 18 -85 -4z m80 -38 c0 -11 -8 -14 -27 -12 -39 4 -42 28 -4
28 21 0 31 -5 31 -16z"/>
<path d="M1620 1150 c-11 -11 -20 -27 -20 -35 0 -20 36 -55 55 -55 9 0 31 7
50 14 29 12 35 20 35 45 0 51 -80 71 -120 31z m78 -32 c-7 -20 -48 -23 -48 -4
0 11 9 16 26 16 16 0 24 -5 22 -12z"/>
<path d="M635 980 c-36 -14 -49 -38 -37 -65 15 -32 51 -40 96 -21 30 12 36 20
36 45 0 44 -43 63 -95 41z m53 -42 c-7 -20 -48 -23 -48 -4 0 11 9 16 26 16 16
0 24 -5 22 -12z"/>
<path d="M1641 976 c-7 -8 -11 -27 -9 -43 2 -22 10 -30 41 -40 47 -16 84 -3
93 32 10 39 -19 65 -71 65 -25 0 -48 -6 -54 -14z m79 -43 c0 -10 -6 -12 -22
-7 -29 8 -31 11 -24 22 9 15 46 2 46 -15z"/>
<path d="M925 749 c-12 -19 70 -69 154 -95 104 -31 251 -5 338 62 34 26 35 28
16 37 -15 6 -29 2 -57 -17 -63 -42 -129 -59 -216 -54 -65 4 -87 10 -144 41
-72 40 -81 43 -91 26z"/>
<path d="M806 659 c-14 -17 -26 -34 -26 -38 0 -20 34 -51 56 -51 30 0 74 44
74 74 0 54 -64 63 -104 15z m46 -41 c-21 -22 -22 -22 -22 -2 0 27 21 47 34 34
7 -7 3 -17 -12 -32z"/>
<path d="M1472 678 c-31 -31 6 -108 52 -108 54 0 72 47 35 94 -22 28 -66 35
-87 14z m68 -60 c0 -4 -6 -8 -13 -8 -14 0 -39 35 -30 44 7 7 43 -23 43 -36z"/>
<path d="M981 604 c-27 -34 -27 -80 -2 -94 31 -16 59 -12 75 13 27 42 28 65 7
86 -28 28 -55 26 -80 -5z m49 -27 c0 -7 -7 -22 -15 -33 -14 -18 -14 -18 -15 7
0 14 3 29 7 32 11 11 23 8 23 -6z"/>
<path d="M1304 605 c-13 -20 -14 -30 -4 -59 12 -38 37 -51 76 -42 29 8 39 41
24 81 -20 52 -68 62 -96 20z m61 -42 c4 -14 2 -23 -4 -23 -14 0 -33 38 -25 51
8 13 19 2 29 -28z"/>
<path d="M1146 564 c-21 -20 -21 -78 0 -98 35 -35 94 -4 94 49 0 53 -59 84
-94 49z m44 -49 c0 -14 -4 -25 -10 -25 -5 0 -10 11 -10 25 0 14 5 25 10 25 6
0 10 -11 10 -25z"/>
<path d="M2834 2036 c-18 -14 -19 -34 -24 -523 -5 -472 -6 -511 -24 -546 -30
-61 -88 -82 -145 -53 -41 22 -60 58 -68 127 -7 68 -22 89 -62 89 -41 0 -61
-28 -61 -86 0 -108 45 -196 120 -234 120 -61 269 -19 327 93 l28 52 3 527 c3
519 3 527 -18 548 -24 24 -49 26 -76 6z"/>
<path d="M4731 2036 c-14 -8 -28 -22 -32 -32 -4 -11 -8 -276 -8 -589 -1 -634
-3 -615 63 -615 17 0 37 5 44 12 9 9 12 78 12 249 0 264 -4 249 73 248 101 -1
161 -53 177 -155 6 -32 10 -120 10 -194 0 -150 4 -160 57 -160 60 0 65 21 61
242 -3 209 -8 228 -66 291 -19 20 -24 32 -17 41 79 106 88 143 83 328 -3 123
-7 150 -27 195 -30 68 -86 118 -152 137 -67 20 -244 21 -278 2z m273 -136 c47
-42 67 -106 67 -217 1 -193 -54 -268 -194 -261 l-62 3 -3 240 c-1 132 0 245 2
252 4 9 29 13 80 13 70 0 78 -2 110 -30z"/>
<path d="M5707 2032 c-14 -16 -17 -43 -17 -170 0 -127 6 -185 34 -354 36 -211
118 -605 135 -650 13 -35 48 -58 87 -58 74 0 82 14 135 247 72 317 121 629
126 803 5 148 4 156 -16 178 -25 25 -58 28 -86 8 -18 -13 -20 -32 -27 -183 -3
-92 -14 -220 -23 -283 -40 -286 -90 -579 -100 -589 -13 -12 -11 -19 -90 424
-38 219 -55 366 -55 491 0 101 -2 116 -20 134 -25 25 -62 26 -83 2z"/>
<path d="M6747 2032 c-15 -17 -17 -74 -17 -609 0 -559 1 -591 18 -606 26 -24
79 -22 92 2 6 13 10 222 10 609 0 558 -1 590 -18 605 -24 22 -65 21 -85 -1z"/>
<path d="M7478 2028 c-27 -21 -30 -53 -9 -79 18 -23 26 -24 155 -27 83 -3 136
-8 136 -14 0 -6 -21 -78 -46 -162 -25 -83 -61 -203 -79 -266 -19 -63 -63 -212
-99 -332 -80 -268 -83 -281 -62 -313 l16 -25 209 0 c230 0 235 1 229 62 -5 49
-31 58 -185 58 -111 0 -133 2 -133 15 0 8 13 56 29 107 86 273 271 908 271
930 0 53 -19 58 -226 58 -137 0 -195 -3 -206 -12z"/>
<path d="M5454 960 c-32 -13 -54 -50 -54 -91 0 -98 124 -133 173 -50 50 84
-30 177 -119 141z"/>
<path d="M6348 955 c-31 -17 -52 -71 -42 -109 3 -14 20 -38 37 -52 62 -52 147
-6 147 79 -1 45 -13 67 -47 85 -29 16 -62 14 -95 -3z"/>
<path d="M7135 958 c-33 -19 -44 -41 -45 -86 0 -100 130 -138 175 -51 47 91
-44 186 -130 137z"/>
<path d="M8126 944 c-20 -20 -26 -37 -26 -68 0 -75 56 -119 124 -96 104 34 79
190 -32 190 -29 0 -46 -7 -66 -26z"/>
<path d="M3153 936 c-22 -19 -28 -32 -28 -66 0 -72 76 -121 138 -88 35 18 46
40 47 89 0 35 -5 51 -23 67 -33 31 -97 30 -134 -2z"/>
<path d="M4301 934 c-14 -18 -21 -41 -21 -69 0 -36 5 -48 31 -69 17 -15 43
-26 59 -26 16 0 42 11 59 26 27 22 31 33 31 73 0 64 -28 91 -92 91 -38 0 -50
-5 -67 -26z"/>
<path d="M4990 382 c-13 -15 -24 -36 -25 -47 -4 -55 -6 -65 -21 -80 -16 -15
-16 -18 0 -33 16 -16 18 -16 27 0 5 9 36 33 68 52 32 20 63 42 70 49 16 21 -8
47 -46 50 -18 1 -33 7 -33 14 0 23 -16 21 -40 -5z m100 -37 c0 -15 -70 -65
-91 -65 -7 0 -9 10 -4 27 8 33 5 30 35 42 37 14 60 13 60 -4z"/>
<path d="M2690 387 c-21 -17 -60 -103 -60 -132 0 -32 47 -66 61 -44 6 10 2 15
-16 17 -16 2 -25 10 -25 21 0 24 18 38 54 43 16 1 31 9 34 16 3 10 -5 12 -34
6 -35 -6 -38 -5 -26 9 7 9 27 19 43 22 30 7 40 25 14 25 -8 0 -15 7 -15 15 0
18 -10 19 -30 2z"/>
<path d="M3028 395 c-3 -5 -9 -25 -13 -42 -8 -39 11 -46 21 -9 7 28 1 66 -8
51z"/>
<path d="M3518 383 c-25 -31 -59 -123 -53 -144 4 -11 18 -24 32 -30 32 -12 33
-12 33 5 0 8 -10 16 -22 18 -13 2 -24 11 -26 20 -4 18 18 31 71 43 15 3 25 10
21 16 -3 6 -19 7 -35 4 -24 -5 -28 -4 -23 9 3 8 21 18 40 22 34 6 48 24 19 24
-8 0 -15 7 -15 15 0 20 -24 19 -42 -2z"/>
<path d="M3707 379 c-10 -11 -29 -19 -48 -19 -38 0 -35 -24 4 -28 26 -3 26 -4
12 -32 -17 -33 -20 -76 -5 -85 6 -3 10 4 10 16 0 35 41 107 64 113 11 3 34 6
49 6 22 0 28 4 25 18 -3 12 -13 17 -38 17 -19 0 -40 3 -46 7 -6 4 -18 -2 -27
-13z"/>
<path d="M3911 336 c-37 -80 -37 -87 -10 -112 16 -14 22 -15 28 -5 5 7 12 13
17 12 33 -1 56 17 86 67 19 32 32 65 30 75 -4 21 -22 23 -22 1 0 -29 -59 -102
-91 -113 -18 -6 -34 -9 -37 -7 -6 7 21 79 36 94 14 16 15 22 2 42 -7 11 -16
-2 -39 -54z"/>
<path d="M4128 379 c-10 -10 -15 -24 -13 -31 3 -7 -6 -40 -19 -72 -23 -55 -25
-86 -6 -86 4 0 11 15 14 33 8 40 41 79 84 96 23 10 32 20 32 37 0 19 -5 24
-25 24 -14 0 -25 5 -25 10 0 16 -23 10 -42 -11z"/>
<path d="M4286 378 c-11 -12 -20 -34 -21 -49 -2 -15 -10 -42 -19 -59 -12 -25
-13 -36 -5 -46 15 -18 29 -18 29 -1 0 7 19 24 43 37 67 38 97 62 97 81 0 22
-9 28 -50 31 -18 1 -35 8 -37 15 -7 17 -14 15 -37 -9z m104 -37 c0 -9 -72 -59
-92 -63 -18 -4 -11 44 10 60 18 14 82 17 82 3z"/>
<path d="M4475 343 c-26 -32 -53 -71 -61 -87 -14 -26 -14 -30 0 -45 15 -15 17
-14 22 7 4 12 11 22 16 22 5 0 6 5 3 10 -3 6 0 10 7 11 7 0 24 2 37 5 22 4 23
2 17 -31 -9 -45 10 -47 19 -2 4 17 10 37 14 42 6 9 7 55 2 108 -2 32 -30 17
-76 -40z m65 5 c0 -32 -10 -44 -44 -52 l-29 -7 18 28 c38 58 55 67 55 31z"/>
<path d="M4671 379 c-13 -10 -34 -19 -47 -19 -15 0 -24 -6 -24 -15 0 -9 10
-15 26 -15 21 0 25 -3 18 -17 -13 -31 -17 -106 -5 -99 6 4 11 16 11 26 0 11 9
37 21 59 17 33 27 42 57 46 55 10 64 14 59 28 -2 6 -19 12 -38 12 -19 0 -39 3
-44 7 -6 3 -21 -2 -34 -13z"/>
<path d="M4830 387 c-23 -18 -43 -77 -44 -127 -1 -42 1 -45 27 -48 15 -2 27 1
27 7 0 6 -9 11 -19 11 -53 0 -28 55 29 65 22 4 37 11 34 16 -3 6 -20 7 -36 4
-46 -10 -31 18 15 29 37 9 51 26 22 26 -8 0 -15 7 -15 15 0 18 -19 19 -40 2z"/>
<path d="M2500 360 c-30 -42 -62 -118 -55 -130 9 -14 36 -12 54 4 9 7 30 18
46 24 l30 10 -42 1 c-23 1 -45 6 -48 11 -3 6 -2 10 3 10 10 0 52 72 52 89 0
20 -18 12 -40 -19z"/>
<path d="M2868 373 c-6 -7 -26 -13 -44 -13 -26 0 -32 -4 -28 -15 4 -8 17 -15
30 -15 l23 0 -16 -44 c-10 -25 -13 -51 -9 -62 7 -17 9 -17 18 6 36 90 44 103
66 111 13 5 34 9 48 9 17 0 24 5 24 20 0 17 -6 19 -51 17 -28 -1 -55 -8 -61
-14z"/>
<path d="M3092 374 c-29 -20 -28 -42 6 -77 27 -28 27 -29 7 -43 -12 -9 -31
-13 -48 -10 -25 5 -26 4 -17 -14 5 -10 14 -21 19 -24 10 -6 87 29 96 44 11 17
-4 46 -30 58 -47 22 -23 51 42 52 16 0 21 4 17 15 -8 20 -63 19 -92 -1z"/>
<path d="M3331 355 c-43 -49 -50 -84 -23 -106 13 -10 31 -15 44 -11 18 4 20 2
13 -14 -12 -29 -11 -57 2 -61 7 -3 15 10 19 32 3 20 17 49 30 65 19 22 21 29
10 33 -8 3 -22 -3 -32 -14 -19 -21 -84 -27 -84 -8 0 20 77 89 99 89 14 0 19 5
15 15 -11 28 -60 18 -93 -20z"/>
<path d="M5090 230 c0 -13 5 -20 13 -17 6 2 12 10 12 17 0 7 -6 15 -12 18 -8
2 -13 -5 -13 -18z"/>
<path d="M5140 230 c0 -13 5 -20 13 -17 6 2 12 10 12 17 0 7 -6 15 -12 18 -8
2 -13 -5 -13 -18z"/>
</g>
</svg>
